<svg xmlns="http://www.w3.org/2000/svg" xmlns:xlink="http://www.w3.org/1999/xlink" width="118" height="40" viewBox="0 0 118 40">
  <defs>
    <linearGradient id="linear-gradient" x1="0.5" x2="0.5" y2="1" gradientUnits="objectBoundingBox">
      <stop offset="0" stop-color="#00bffc"/>
      <stop offset="1" stop-color="#0073f6"/>
    </linearGradient>
  </defs>
  <g id="Group_59353" data-name="Group 59353" transform="translate(-1499 -990)">
    <rect id="Rectangle_7174" data-name="Rectangle 7174" width="118" height="40" rx="10" transform="translate(1499 990)" fill="#fff"/>
    <g id="app-store_1_" data-name="app-store (1)" transform="translate(1507.664 993.635)">
      <path id="Path_70701" data-name="Path 70701" d="M26.067.032H6.6A6.6,6.6,0,0,0,0,6.63V26.1A6.6,6.6,0,0,0,6.6,32.7H26.071a6.6,6.6,0,0,0,6.6-6.6V6.63a6.6,6.6,0,0,0-6.6-6.6Z" fill="url(#linear-gradient)"/>
      <g id="Group_59352" data-name="Group 59352" transform="translate(4.353 5.644)">
        <path id="Path_70702" data-name="Path 70702" d="M80.057,89.875l.661-1.143A1.489,1.489,0,0,1,83.3,90.218l-6.374,11.033h4.61a2.04,2.04,0,0,1,1.682,2.973H69.7a1.486,1.486,0,1,1,0-2.973h3.789l4.851-8.407-1.515-2.63a1.489,1.489,0,0,1,2.581-1.486Z" transform="translate(-68.216 -87.982)" fill="#fff"/>
        <path id="Path_70703" data-name="Path 70703" d="M102.206,351.8l-1.429,2.479A1.489,1.489,0,0,1,98.2,352.79l1.062-1.837A2.545,2.545,0,0,1,102.206,351.8Z" transform="translate(-96.098 -334.025)" fill="#fff"/>
        <path id="Path_70704" data-name="Path 70704" d="M275.844,184.928h3.867a1.486,1.486,0,0,1,0,2.973h-2.148l1.45,2.515a1.489,1.489,0,0,1-2.581,1.486q-3.663-6.351-5.492-9.514a4.112,4.112,0,0,1,.523-5.035Q272.927,179.865,275.844,184.928Z" transform="translate(-257.429 -171.651)" fill="#fff"/>
      </g>
    </g>
    <text id="Get_it_on" data-name="Get it on" transform="translate(1549 1005)" fill="#242424" font-size="8" font-family="Roboto-Medium, Roboto" font-weight="500"><tspan x="0" y="0">Get it on</tspan></text>
    <text id="App_Store" data-name="App Store" transform="translate(1549 1020)" fill="#242424" font-size="12" font-family="Roboto-Medium, Roboto" font-weight="500"><tspan x="0" y="0">App Store</tspan></text>
  </g>
</svg>
