<svg xmlns="http://www.w3.org/2000/svg" width="70" height="70" viewBox="0 0 70 70">
  <g id="credit-card" transform="translate(0 -0.001)">
    <path id="Path_70540" data-name="Path 70540" d="M64.531,0H5.469A5.475,5.475,0,0,0,0,5.47v35a5.475,5.475,0,0,0,5.469,5.469H64.531A5.475,5.475,0,0,0,70,40.47v-35A5.475,5.475,0,0,0,64.531,0Z" fill="#fddd88"/>
    <g id="Group_59278" data-name="Group 59278" transform="translate(0 8.671)">
      <rect id="Rectangle_6420" data-name="Rectangle 6420" width="69.358" height="10.596" transform="translate(0 0)" fill="#55697a"/>
      <path id="Path_70541" data-name="Path 70541" d="M47.312,226.189H33.094a1.094,1.094,0,1,1,0-2.187H47.312a1.094,1.094,0,1,1,0,2.188Z" transform="translate(-27.625 -202.046)" fill="#55697a"/>
    </g>
    <path id="Path_70542" data-name="Path 70542" d="M59.344,160H33.094A1.094,1.094,0,0,0,32,161.095v4.375a1.094,1.094,0,0,0,1.094,1.094h26.25a1.094,1.094,0,0,0,1.094-1.094v-4.375A1.094,1.094,0,0,0,59.344,160Z" transform="translate(-27.625 -138.125)" fill="#f4f6f7"/>
    <path id="Path_70543" data-name="Path 70543" d="M236.734,212.85a1.1,1.1,0,0,0-.985-.15l-5.758,1.92a7.68,7.68,0,0,1-2.432.39,11.179,11.179,0,0,1-5.694-1.773l-2.6-1.964a1.094,1.094,0,0,0-1.315,0l-2.609,1.957a11.16,11.16,0,0,1-5.707,1.782,7.674,7.674,0,0,1-2.432-.39l-5.758-1.92a1.1,1.1,0,0,0-1.44,1.038v22.849a1.093,1.093,0,0,0,.116.489l.462.924a26.166,26.166,0,0,0,8.252,9.507,30.628,30.628,0,0,0,8.035,4.173l1.383.461a1.1,1.1,0,0,0,.692,0l1.383-.461a30.623,30.623,0,0,0,8.035-4.173A26.167,26.167,0,0,0,236.611,238l.462-.924a1.092,1.092,0,0,0,.115-.489V213.737A1.1,1.1,0,0,0,236.734,212.85Z" transform="translate(-172.657 -182.195)" fill="#fd8e61"/>
    <path id="Path_70544" data-name="Path 70544" d="M220.146,261.327a30.624,30.624,0,0,1-8.035-4.173,26.167,26.167,0,0,1-8.252-9.507l-.462-.924a1.093,1.093,0,0,1-.116-.489V223.385s0,0,0-.007l-1.842-.614A1.1,1.1,0,0,0,200,223.8v22.849a1.093,1.093,0,0,0,.116.489l.462.924a26.166,26.166,0,0,0,8.252,9.507,30.627,30.627,0,0,0,8.035,4.173l1.383.461a1.1,1.1,0,0,0,.692,0l1.383-.461c.159-.053.336-.114.526-.182Z" transform="translate(-172.656 -192.261)" fill="#fd7239"/>
    <path id="Path_70545" data-name="Path 70545" d="M259.983,258.393a1.1,1.1,0,0,0-.985-.15c-6.449,2.15-12.067-1.983-12.123-2.025a1.094,1.094,0,0,0-1.312,0c-.056.042-5.674,4.175-12.123,2.025a1.1,1.1,0,0,0-1.44,1.038v15.076a1.093,1.093,0,0,0,.116.489c3.941,7.881,12.151,10.951,13.757,11.486a1.1,1.1,0,0,0,.692,0c1.606-.535,9.817-3.605,13.757-11.486a1.093,1.093,0,0,0,.116-.489V259.281A1.1,1.1,0,0,0,259.983,258.393Z" transform="translate(-200.281 -220.999)" fill="#808e9b"/>
    <path id="Path_70546" data-name="Path 70546" d="M248.06,299.3c-1.606-.535-9.817-3.605-13.757-11.486a1.093,1.093,0,0,1-.116-.489V272.286c-.248-.065-.5-.138-.748-.222A1.1,1.1,0,0,0,232,273.1v15.076a1.092,1.092,0,0,0,.116.489c3.94,7.881,12.151,10.951,13.757,11.486a1.1,1.1,0,0,0,.692,0,22.655,22.655,0,0,0,2.109-.838A1.1,1.1,0,0,1,248.06,299.3Z" transform="translate(-200.281 -234.82)" fill="#6b7b8b"/>
    <path id="Path_70547" data-name="Path 70547" d="M298.906,314.831a1.641,1.641,0,0,0-2.315-.154l-7.419,6.491-2.22-2.96a1.641,1.641,0,0,0-2.625,1.969l3.281,4.375a1.656,1.656,0,0,0,2.393.25l8.75-7.656A1.641,1.641,0,0,0,298.906,314.831Z" transform="translate(-245.172 -271.303)" fill="#49dfe5"/>
  </g>
</svg>
