<svg id="Group_59270" data-name="Group 59270" xmlns="http://www.w3.org/2000/svg" xmlns:xlink="http://www.w3.org/1999/xlink" width="46.729" height="46.729" viewBox="0 0 46.729 46.729">
  <defs>
    <clipPath id="clip-path">
      <ellipse id="Ellipse_3" data-name="Ellipse 3" cx="21.655" cy="20.515" rx="21.655" ry="20.515" transform="translate(0 0)" fill="#fff" stroke="#707070" stroke-width="1"/>
    </clipPath>
  </defs>
  <g id="Ellipse_4" data-name="Ellipse 4" transform="translate(0 0)" fill="#fff" stroke="#d7222c" stroke-width="1">
    <circle cx="23.364" cy="23.364" r="23.364" stroke="none"/>
    <circle cx="23.364" cy="23.364" r="22.864" fill="none"/>
  </g>
  <g id="Mask_Group_1" data-name="Mask Group 1" transform="translate(1.285 3.419)" clip-path="url(#clip-path)">
    <g id="man" transform="translate(0.797 -0.278)">
      <g id="Group_59265" data-name="Group 59265" transform="translate(11.497 12.48)">
        <path id="Path_70506" data-name="Path 70506" d="M20.407,34.619c.07.1.061.1-.009,0Z" transform="translate(-16.736 -21.096)" fill="#f8b64c"/>
        <path id="Path_70507" data-name="Path 70507" d="M35.592,34.619c-.07.1-.079.1-.009,0Z" transform="translate(-20.503 -21.096)" fill="#f8b64c"/>
        <path id="Path_70508" data-name="Path 70508" d="M19.185,19.12c.128,1.467-.584,2.73-1.591,2.817s-1.929-1.031-2.056-2.5.584-2.73,1.59-2.817,1.928,1.031,2.058,2.5" transform="translate(-15.522 -16.615)" fill="#f8b64c"/>
        <path id="Path_70509" data-name="Path 70509" d="M39.258,19.438c-.128,1.469-1.049,2.588-2.058,2.5s-1.718-1.35-1.59-2.817,1.049-2.588,2.056-2.5,1.72,1.35,1.591,2.817" transform="translate(-20.518 -16.615)" fill="#f8b64c"/>
      </g>
      <path id="Path_70510" data-name="Path 70510" d="M25.2,3.631A8.468,8.468,0,0,0,16.733,12.1v2.541a15.636,15.636,0,0,0,.12,1.941v0A15.94,15.94,0,0,0,20.907,25.4l.8.88a3.889,3.889,0,0,0,2.875,1.27h1.227a3.894,3.894,0,0,0,2.875-1.268l.806-.882a15.953,15.953,0,0,0,4.058-8.819,15.664,15.664,0,0,0,.118-1.941V12.1A8.469,8.469,0,0,0,25.2,3.631" transform="translate(-4.327 -0.904)" fill="#ffd15c"/>
      <path id="Path_70511" data-name="Path 70511" d="M20.4,33.521c1.412,1.945,5.706,8.435,5.706,8.435s4.3-6.49,5.714-8.435h.007V30.208a15.511,15.511,0,0,1-1.419,1.808L29.6,32.9a3.9,3.9,0,0,1-2.873,1.27H25.5a3.9,3.9,0,0,1-2.875-1.27l-.806-.885A16.589,16.589,0,0,1,20.4,30.208v3.313Z" transform="translate(-5.239 -7.518)" fill="#f8b64c"/>
      <path id="Path_70512" data-name="Path 70512" d="M36.758,38.648,30.45,36.373a26.125,26.125,0,0,1-9.364,12.522,26.125,26.125,0,0,1-9.364-12.522L5.413,38.648a7.85,7.85,0,0,0-5.2,7.387v5.08H41.954v-5.08a7.85,7.85,0,0,0-5.2-7.387" transform="translate(-0.216 -9.053)" fill="#ff7058"/>
      <path id="Path_70513" data-name="Path 70513" d="M24.9,48.459a26.114,26.114,0,0,0,9.364-12.523l-3.654-1.316c-1.412,1.944-5.714,8.434-5.714,8.434s-4.294-6.49-5.706-8.434l-3.654,1.318A26.121,26.121,0,0,0,24.9,48.459" transform="translate(-4.028 -8.616)" fill="#cdd6e0"/>
      <g id="Group_59266" data-name="Group 59266" transform="translate(18.237 30.335)">
        <path id="Path_70514" data-name="Path 70514" d="M28.7,40.386l-.693,4.1,2.632-2.006Z" transform="translate(-25.37 -40.386)" fill="#acb3ba"/>
        <path id="Path_70515" data-name="Path 70515" d="M26.435,40.386l.693,4.1L24.5,42.483Z" transform="translate(-24.496 -40.386)" fill="#acb3ba"/>
      </g>
      <path id="Path_70516" data-name="Path 70516" d="M33.291,13.961s-.731-.1-.486-1.677a1.634,1.634,0,0,0-.025-1.179,12.061,12.061,0,0,1-.666-2.5c-.266-1.327-.88-2.86-2.288-2.913,0,0-3.555.456-4.983.456s-4.987-.456-4.987-.456c-1.4.053-2.015,1.576-2.283,2.9a12.826,12.826,0,0,1-.676,2.532,1.628,1.628,0,0,0-.02,1.162c.244,1.58-.486,1.677-.486,1.677-1.944-1.458-.727-7.026-.727-7.026A9.187,9.187,0,0,1,24.844,0a9.183,9.183,0,0,1,9.176,6.93s1.217,5.568-.729,7.026" transform="translate(-3.967 0)" fill="#40596b"/>
      <g id="Group_59267" data-name="Group 59267" transform="translate(13.058 26.003)">
        <path id="Path_70517" data-name="Path 70517" d="M36.049,35.379l-2.107-.76L28.93,38.951,31.7,42.328Z" transform="translate(-20.421 -34.619)" fill="#f2f2f2"/>
        <path id="Path_70518" data-name="Path 70518" d="M17.6,35.379l2.107-.76,5.012,4.332-2.767,3.377Z" transform="translate(-17.601 -34.619)" fill="#f2f2f2"/>
      </g>
      <g id="Group_59269" data-name="Group 59269" transform="translate(17.829 22.691)" opacity="0.1">
        <g id="Group_59268" data-name="Group 59268">
          <path id="Path_70519" data-name="Path 70519" d="M31.291,32.014l-.806.885a3.888,3.888,0,0,1-2.873,1.271H26.384a3.874,3.874,0,0,1-2.417-.864l-.014.005,4.166,4.166L32.7,33.524l0,0h0l.007-3.312a15.836,15.836,0,0,1-1.42,1.8" transform="translate(-23.953 -30.21)" fill="#40596b"/>
        </g>
      </g>
    </g>
  </g>
</svg>
