<svg xmlns="http://www.w3.org/2000/svg" width="72" height="65.785" viewBox="0 0 72 65.785">
  <g id="house" transform="translate(0 -22.098)">
    <path id="Path_70520" data-name="Path 70520" d="M122.886,76.736l-7.119.01-.02-12a.608.608,0,0,1,.607-.609l5.9-.008a.608.608,0,0,1,.609.607Z" transform="translate(-99.42 -36.288)" fill="#ffb125"/>
    <path id="Path_70521" data-name="Path 70521" d="M122.991,64.74a.608.608,0,0,0-.609-.607l-3.52,0a.606.606,0,0,1,.559.6l.02,12-3.549,0v0l7.119-.01Z" transform="translate(-99.543 -36.288)" fill="#ff901d"/>
    <path id="Path_70522" data-name="Path 70522" d="M134.652,62.542,114.586,80.505l.04,27.308a1.34,1.34,0,0,0,1.375,1.3l37.439-.05a1.34,1.34,0,0,0,1.371-1.306l-.04-27.308Z" transform="translate(-98.92 -34.915)" fill="#e1effb"/>
    <path id="Path_70523" data-name="Path 70523" d="M253.323,80.452,234.2,62.542,231.06,65.5l15.956,14.948.038,27.308a1.3,1.3,0,0,1-1.3,1.306h6.306a1.3,1.3,0,0,0,1.3-1.306Z" transform="translate(-198.145 -34.915)" fill="#ccdfed"/>
    <path id="Path_70524" data-name="Path 70524" d="M102.45,51.554a2.757,2.757,0,0,1-1.859-.709L75.7,28.318l-24.829,22.6a2.782,2.782,0,0,1-3.837-.111,2.56,2.56,0,0,1,.114-3.707L73.831,22.811a2.784,2.784,0,0,1,3.717-.005L104.3,47.018a2.56,2.56,0,0,1,.125,3.706A2.753,2.753,0,0,1,102.45,51.554Z" transform="translate(-39.963 0)" fill="#ff4c4c"/>
    <path id="Path_70525" data-name="Path 70525" d="M104.437,66.93a2.782,2.782,0,0,1-3.837.121L75.706,44.523l-24.829,22.6a2.782,2.782,0,0,1-3.837-.111,2.668,2.668,0,0,1-.191-.219,2.553,2.553,0,0,0,.191,3.373,2.782,2.782,0,0,0,3.837.111l24.829-22.6L100.6,70.205a2.782,2.782,0,0,0,3.837-.121,2.554,2.554,0,0,0,.186-3.368A2.654,2.654,0,0,1,104.437,66.93Z" transform="translate(-39.972 -19.359)" fill="#f33939"/>
    <path id="Path_70526" data-name="Path 70526" d="M222.99,227.206l-9.8.014a.833.833,0,0,0-.832.834l.032,23.2,11.468-.016-.032-23.2A.833.833,0,0,0,222.99,227.206Z" transform="translate(-182.33 -175.782)" fill="#2d5871"/>
    <path id="Path_70527" data-name="Path 70527" d="M256,228.037a.833.833,0,0,0-.834-.832l-5.538.008a.833.833,0,0,1,.584.794l.032,23.235,5.788-.008Z" transform="translate(-214.426 -175.782)" fill="#1d4859"/>
    <path id="Path_70528" data-name="Path 70528" d="M86.814,292.35,71.933,302.02l-4.435-.242-.174-1.695a5.577,5.577,0,0,0-4.845-4.9L50.6,293.852a21.719,21.719,0,0,1-7.77-2.626h0a21.786,21.786,0,0,0-10.753-2.83H23.508v18.987l22.642,8.325a6.34,6.34,0,0,0,2.633.17l.016,0,22.8-3.19a10.234,10.234,0,0,0,4.785-2.082l14.733-12.865a3.345,3.345,0,0,0,.573-4.475h0A3.584,3.584,0,0,0,86.814,292.35Z" transform="translate(-20.294 -228.064)" fill="#fed9a8"/>
    <g id="Group_59274" data-name="Group 59274" transform="translate(3.214 65.515)">
      <path id="Path_70529" data-name="Path 70529" d="M91.878,326.3,77.316,338.2a12.673,12.673,0,0,1-5.425,2.082l-23.093,1.6-.016,0a6.337,6.337,0,0,1-2.633-.17l-22.642-8.325v6.711l22.642,8.325a6.66,6.66,0,0,0,1.308.224q.166.011.331.014a5.955,5.955,0,0,0,.993-.067l.016,0,22.8-3.19a10.334,10.334,0,0,0,1.61-.384q.157-.051.312-.107a10.224,10.224,0,0,0,1.5-.68q.144-.08.285-.164a10.083,10.083,0,0,0,1.082-.747l14.733-12.865A3.344,3.344,0,0,0,91.878,326.3Z" transform="translate(-23.507 -326.301)" fill="#f4c892"/>
      <path id="Path_70530" data-name="Path 70530" d="M182.065,367.206l-24.354-.975a.683.683,0,0,1-.329-.1l-1.294-.788a.684.684,0,0,1,.439-1.264Z" transform="translate(-136.784 -358.91)" fill="#f4c892"/>
    </g>
    <path id="Path_70531" data-name="Path 70531" d="M6.017,286.231H2.726A2.726,2.726,0,0,1,0,283.505V259.15a2.726,2.726,0,0,1,2.726-2.726H6.017a2.726,2.726,0,0,1,2.726,2.726v24.355A2.726,2.726,0,0,1,6.017,286.231Z" transform="translate(0 -200.462)" fill="#2d5871"/>
    <path id="Path_70532" data-name="Path 70532" d="M19.819,256.424H16.528a2.74,2.74,0,0,0-.54.054,2.727,2.727,0,0,1,2.186,2.672v24.355a2.727,2.727,0,0,1-2.186,2.672,2.739,2.739,0,0,0,.54.054h3.291a2.726,2.726,0,0,0,2.726-2.726V259.15A2.726,2.726,0,0,0,19.819,256.424Z" transform="translate(-13.802 -200.462)" fill="#1d4859"/>
  </g>
</svg>
