<svg id="Group_59351" data-name="Group 59351" xmlns="http://www.w3.org/2000/svg" width="89.444" height="89.967" viewBox="0 0 89.444 89.967">
  <rect id="Rectangle_7121" data-name="Rectangle 7121" width="2.485" height="2.485" transform="translate(24.846 0)" fill="#242424"/>
  <rect id="Rectangle_7122" data-name="Rectangle 7122" width="2.485" height="2.485" transform="translate(37.268 0)" fill="#242424"/>
  <rect id="Rectangle_7123" data-name="Rectangle 7123" width="2.485" height="2.485" transform="translate(54.66 0)" fill="#242424"/>
  <path id="Path_70653" data-name="Path 70653" d="M32.134,0V7.453h2.484V4.97H37.1V2.485H34.618V0Z" transform="translate(-2.32 0)" fill="#242424"/>
  <rect id="Rectangle_7124" data-name="Rectangle 7124" width="2.485" height="2.485" transform="translate(57.145 2.485)" fill="#242424"/>
  <path id="Path_70654" data-name="Path 70654" d="M69.624,7.647v2.485h2.485V2.678H69.624V7.647Z" transform="translate(-5.026 -0.193)" fill="#242424"/>
  <path id="Path_70655" data-name="Path 70655" d="M26.585,7.84V5.356H24.1v4.969h2.485Z" transform="translate(-1.74 -0.387)" fill="#242424"/>
  <rect id="Rectangle_7125" data-name="Rectangle 7125" width="2.485" height="2.485" transform="translate(62.114 0)" fill="#242424"/>
  <path id="Path_70656" data-name="Path 70656" d="M64.269,10.325h2.485V5.355H64.269v4.969Z" transform="translate(-4.64 -0.387)" fill="#242424"/>
  <rect id="Rectangle_7126" data-name="Rectangle 7126" width="2.485" height="2.485" transform="translate(27.33 9.938)" fill="#242424"/>
  <rect id="Rectangle_7127" data-name="Rectangle 7127" width="2.485" height="2.485" transform="translate(37.268 9.938)" fill="#242424"/>
  <rect id="Rectangle_7128" data-name="Rectangle 7128" width="2.485" height="2.485" transform="translate(24.846 12.423)" fill="#242424"/>
  <rect id="Rectangle_7129" data-name="Rectangle 7129" width="2.485" height="2.485" transform="translate(47.206 12.423)" fill="#242424"/>
  <rect id="Rectangle_7130" data-name="Rectangle 7130" width="2.485" height="2.485" transform="translate(22.361 14.907)" fill="#242424"/>
  <rect id="Rectangle_7131" data-name="Rectangle 7131" width="2.485" height="2.485" transform="translate(49.691 14.907)" fill="#242424"/>
  <path id="Path_70657" data-name="Path 70657" d="M34.619,18.358V13.389H32.134v7.454h2.485Z" transform="translate(-2.32 -0.967)" fill="#242424"/>
  <path id="Path_70658" data-name="Path 70658" d="M39.975,18.358V13.389H37.49v7.454h2.485Z" transform="translate(-2.706 -0.967)" fill="#242424"/>
  <path id="Path_70659" data-name="Path 70659" d="M53.364,18.745H50.879v4.969h2.485V18.745Z" transform="translate(-3.673 -1.353)" fill="#242424"/>
  <rect id="Rectangle_7132" data-name="Rectangle 7132" width="2.485" height="2.485" transform="translate(17.392 22.361)" fill="#242424"/>
  <path id="Path_70660" data-name="Path 70660" d="M53.557,26.585V29.07h2.485V24.1H53.557Z" transform="translate(-3.866 -1.74)" fill="#242424"/>
  <path id="Path_70661" data-name="Path 70661" d="M74.4,23.907H71.915V21.423H69.431v2.485H66.946v2.485h2.485v2.485H74.4V23.907Z" transform="translate(-4.833 -1.546)" fill="#242424"/>
  <rect id="Rectangle_7133" data-name="Rectangle 7133" width="2.485" height="2.485" transform="translate(0 24.845)" fill="#242424"/>
  <path id="Path_70662" data-name="Path 70662" d="M13.2,26.585V24.1H10.711V29.07H13.2Z" transform="translate(-0.773 -1.74)" fill="#242424"/>
  <rect id="Rectangle_7134" data-name="Rectangle 7134" width="2.485" height="2.485" transform="translate(59.629 24.845)" fill="#242424"/>
  <rect id="Rectangle_7135" data-name="Rectangle 7135" width="2.485" height="2.485" transform="translate(72.052 24.845)" fill="#242424"/>
  <path id="Path_70663" data-name="Path 70663" d="M10.132,31.554V29.07H7.647V24.1H2.677v2.485H5.162v4.969h4.969Z" transform="translate(-0.193 -1.74)" fill="#242424"/>
  <rect id="Rectangle_7136" data-name="Rectangle 7136" width="2.485" height="2.485" transform="translate(54.66 27.33)" fill="#242424"/>
  <path id="Path_70664" data-name="Path 70664" d="M87.983,31.554V24.1H85.5v2.485H83.013v7.454H85.5V31.554Z" transform="translate(-5.993 -1.74)" fill="#242424"/>
  <rect id="Rectangle_7137" data-name="Rectangle 7137" width="2.485" height="2.485" transform="translate(2.485 29.814)" fill="#242424"/>
  <rect id="Rectangle_7138" data-name="Rectangle 7138" width="2.485" height="2.485" transform="translate(64.598 12.423)" fill="#242424"/>
  <rect id="Rectangle_7139" data-name="Rectangle 7139" width="2.485" height="2.485" transform="translate(62.114 14.907)" fill="#242424"/>
  <rect id="Rectangle_7140" data-name="Rectangle 7140" width="2.485" height="2.485" transform="translate(9.938 29.814)" fill="#242424"/>
  <path id="Path_70665" data-name="Path 70665" d="M31.941,31.941V29.456H29.456V36.91h2.485V34.426h2.485V31.941Z" transform="translate(-2.126 -2.126)" fill="#242424"/>
  <path id="Path_70666" data-name="Path 70666" d="M77.271,34.425V29.456H74.787v2.485H72.3v2.485h4.969Z" transform="translate(-5.219 -2.126)" fill="#242424"/>
  <rect id="Rectangle_7141" data-name="Rectangle 7141" width="2.485" height="2.485" transform="translate(4.969 32.299)" fill="#242424"/>
  <path id="Path_70667" data-name="Path 70667" d="M15.874,36.91v2.485h9.938V34.425H23.328V36.91H18.359V34.425h2.485V29.457H15.874v4.968H13.389V36.91Z" transform="translate(-0.967 -2.126)" fill="#242424"/>
  <path id="Path_70668" data-name="Path 70668" d="M69.238,37.3h2.485V34.812H66.753v4.969H64.268v4.969h2.485V42.266h2.485V37.3Z" transform="translate(-4.639 -2.513)" fill="#242424"/>
  <path id="Path_70669" data-name="Path 70669" d="M79.949,37.49H74.98v2.485h4.969v2.485h4.969V37.49H79.949Z" transform="translate(-5.413 -2.706)" fill="#242424"/>
  <path id="Path_70670" data-name="Path 70670" d="M0,37.49v4.969H2.485V37.49Z" transform="translate(0 -2.706)" fill="#242424"/>
  <rect id="Rectangle_7142" data-name="Rectangle 7142" width="2.485" height="2.485" transform="translate(27.33 37.268)" fill="#242424"/>
  <path id="Path_70671" data-name="Path 70671" d="M48.2,39.588v2.485h7.453V37.1h7.454V32.134H60.624v2.485H55.655V32.134H53.171V37.1H50.686v2.485Z" transform="translate(-3.48 -2.32)" fill="#242424"/>
  <path id="Path_70672" data-name="Path 70672" d="M72.109,42.652H69.624v4.969h2.485V45.137h2.485V40.168H72.109Z" transform="translate(-5.026 -2.9)" fill="#242424"/>
  <path id="Path_70673" data-name="Path 70673" d="M29.07,45.33V42.846H24.1V45.33H29.07Z" transform="translate(-1.74 -3.093)" fill="#242424"/>
  <path id="Path_70674" data-name="Path 70674" d="M34.039,42.43v2.485h2.485v7.454h2.485v2.485h7.454V49.884H43.977v2.485H41.493V49.884H39.008V44.915h4.969V47.4h2.485v2.485h4.968v2.485h2.485V49.884H56.4V47.4H53.915V44.915H51.431V47.4H48.946V44.915H46.462V42.43H41.493V34.977h2.485v2.485h2.485V34.977h2.484V30.008H46.462v2.485H43.977V30.008h2.485V27.523h2.484V25.038H46.462V22.554H43.977v2.484H41.493V22.554h2.485V20.07h2.485V10.131h7.453v2.485H56.4V15.1h2.485v2.485H56.4V20.07H53.915v2.485H56.4v2.484h2.485V22.554h2.485V12.616H58.885V5.163H56.4V2.678H48.946V5.163h2.485V7.646H43.977V2.678H41.493V5.163H36.523V7.646H34.039v2.485h4.969V7.646h2.485v2.485h2.485V15.1H41.493V20.07H39.008v2.485H36.523V20.07H34.039v2.485H31.554V20.07H29.069v2.485H24.1v2.484H36.523v7.454H34.039v7.454H31.554V42.43Zm4.969-12.422V27.523h2.485v4.969H39.008Zm-2.485,4.969h2.485v2.485H36.523Zm2.485,7.453H36.523V39.945h2.485Z" transform="translate(-1.74 -0.193)" fill="#242424"/>
  <path id="Path_70675" data-name="Path 70675" d="M58.72,45.33H61.2V42.846H56.235V45.33Z" transform="translate(-4.06 -3.093)" fill="#242424"/>
  <rect id="Rectangle_7143" data-name="Rectangle 7143" width="2.485" height="2.485" transform="translate(0 42.237)" fill="#242424"/>
  <path id="Path_70676" data-name="Path 70676" d="M29.263,48.008H26.778v2.485h2.485v2.485h4.969V50.493H31.748V45.523H29.263Z" transform="translate(-1.933 -3.286)" fill="#242424"/>
  <path id="Path_70677" data-name="Path 70677" d="M18.358,50.3h4.969V45.33H20.843V42.846H13.389V45.33h2.485v2.485h2.485Z" transform="translate(-0.967 -3.093)" fill="#242424"/>
  <rect id="Rectangle_7144" data-name="Rectangle 7144" width="2.485" height="2.485" transform="translate(54.66 44.721)" fill="#242424"/>
  <path id="Path_70678" data-name="Path 70678" d="M79.176,90.245H76.691V87.761h2.485ZM71.723,70.369h7.453v7.454H71.723Zm7.453-24.846H74.207v2.485H71.723v2.485H69.237v2.485h4.969v2.485h2.485V65.4H74.207v2.484H71.723V65.4h2.484V62.915H66.754V65.4h2.484v2.484H66.754v2.485H64.269v4.969h2.485V72.854h2.484v2.485H66.754v2.485h2.484v2.484H66.754v2.485h2.484v2.485h2.486V82.791h2.484V80.307h2.485v2.485H74.207v2.485h2.485v2.485H74.207v2.485H71.723V92.73H86.629V90.245h2.486V87.761H84.145v2.485H81.661V87.761h2.485V85.276H79.176V80.307h2.485V75.338h4.968V72.854h2.486V70.369H84.145v2.485H81.661V70.369h2.485V67.884H79.176V57.945h2.485v4.969h2.485V57.945h2.484V55.462H79.176V52.977H76.691V50.492h2.485v2.485h2.485V50.492h2.485V48.008H81.661V45.523Z" transform="translate(-4.64 -3.286)" fill="#242424"/>
  <path id="Path_70679" data-name="Path 70679" d="M66.753,50.686h2.485V48.2H64.269v4.969h2.485Z" transform="translate(-4.64 -3.48)" fill="#242424"/>
  <rect id="Rectangle_7145" data-name="Rectangle 7145" width="2.485" height="2.485" transform="translate(79.505 47.206)" fill="#242424"/>
  <rect id="Rectangle_7146" data-name="Rectangle 7146" width="2.485" height="2.485" transform="translate(14.907 49.691)" fill="#242424"/>
  <rect id="Rectangle_7147" data-name="Rectangle 7147" width="2.485" height="2.485" transform="translate(57.145 49.691)" fill="#242424"/>
  <rect id="Rectangle_7148" data-name="Rectangle 7148" width="2.485" height="2.485" transform="translate(47.206 52.176)" fill="#242424"/>
  <path id="Path_70680" data-name="Path 70680" d="M66.753,58.719h2.485V56.235H64.269V61.2h2.485Z" transform="translate(-4.64 -4.06)" fill="#242424"/>
  <rect id="Rectangle_7149" data-name="Rectangle 7149" width="2.485" height="2.485" transform="translate(64.598 54.66)" fill="#242424"/>
  <rect id="Rectangle_7150" data-name="Rectangle 7150" width="2.485" height="2.485" transform="translate(34.784 57.145)" fill="#242424"/>
  <rect id="Rectangle_7151" data-name="Rectangle 7151" width="2.485" height="2.485" transform="translate(39.753 57.145)" fill="#242424"/>
  <rect id="Rectangle_7152" data-name="Rectangle 7152" width="2.485" height="2.485" transform="translate(44.721 57.145)" fill="#242424"/>
  <rect id="Rectangle_7153" data-name="Rectangle 7153" width="2.485" height="2.485" transform="translate(37.268 59.629)" fill="#242424"/>
  <rect id="Rectangle_7154" data-name="Rectangle 7154" width="2.485" height="2.485" transform="translate(42.238 59.629)" fill="#242424"/>
  <path id="Path_70681" data-name="Path 70681" d="M4.968,52.4H2.484V49.913H4.968ZM7.453,37.49v9.939H2.484v2.484H0v4.969H2.484v2.485H0V69.789H7.453V67.305H4.968V64.821H2.484V59.851H7.453V57.366H9.938v7.454H7.453v2.485h4.969v2.484h2.484V67.305h2.486V64.821H12.422V54.882H7.453V49.912H9.938V52.4h4.968V47.429H9.938V37.49Z" transform="translate(0 -2.706)" fill="#242424"/>
  <path id="Path_70682" data-name="Path 70682" d="M38.428,68.271V65.786H35.943V63.3H33.459v2.485H30.974V63.3h2.485V55.849H28.49v2.485h2.484v2.484H21.036V58.333h4.969V55.849H28.49V53.364H26.006V50.879H23.521v4.969H18.552v4.968H16.067V63.3h2.485v2.485h2.485V63.3h2.485v2.485h2.485V63.3H28.49v4.969H23.521V65.786H21.036v4.969h4.969V73.24H23.521v2.485h2.485v2.484H28.49V70.756h2.484V68.271h2.485v2.485h2.485V68.271Z" transform="translate(-1.16 -3.673)" fill="#242424"/>
  <path id="Path_70683" data-name="Path 70683" d="M56.042,69.044h2.485V66.56H63.5V61.59H61.011v2.485H56.042V61.59H53.557V66.56h2.485Z" transform="translate(-3.866 -4.446)" fill="#242424"/>
  <rect id="Rectangle_7155" data-name="Rectangle 7155" width="2.485" height="2.485" transform="translate(59.629 62.113)" fill="#242424"/>
  <path id="Path_70684" data-name="Path 70684" d="M53.364,69.431V66.946H50.879v4.969h2.485Z" transform="translate(-3.673 -4.833)" fill="#242424"/>
  <rect id="Rectangle_7156" data-name="Rectangle 7156" width="2.485" height="2.485" transform="translate(57.145 64.598)" fill="#242424"/>
  <path id="Path_70685" data-name="Path 70685" d="M58.526,74.787h2.485V72.3H53.557v2.485h4.969Z" transform="translate(-3.866 -5.219)" fill="#242424"/>
  <path id="Path_70686" data-name="Path 70686" d="M34.619,74.98H32.134v2.485H37.1V74.98Z" transform="translate(-2.32 -5.413)" fill="#242424"/>
  <rect id="Rectangle_7157" data-name="Rectangle 7157" width="2.485" height="2.485" transform="translate(69.567 69.567)" fill="#242424"/>
  <rect id="Rectangle_7158" data-name="Rectangle 7158" width="2.485" height="2.485" transform="translate(34.784 72.052)" fill="#242424"/>
  <rect id="Rectangle_7159" data-name="Rectangle 7159" width="2.485" height="2.485" transform="translate(79.505 74.536)" fill="#242424"/>
  <rect id="Rectangle_7160" data-name="Rectangle 7160" width="2.485" height="2.485" transform="translate(22.361 77.02)" fill="#242424"/>
  <path id="Path_70687" data-name="Path 70687" d="M37.3,82.82V80.336H34.812V87.79H37.3V82.82Z" transform="translate(-2.513 -5.799)" fill="#242424"/>
  <rect id="Rectangle_7161" data-name="Rectangle 7161" width="2.485" height="2.485" transform="translate(57.145 77.02)" fill="#242424"/>
  <rect id="Rectangle_7162" data-name="Rectangle 7162" width="2.485" height="2.485" transform="translate(27.33 79.505)" fill="#242424"/>
  <rect id="Rectangle_7163" data-name="Rectangle 7163" width="2.485" height="2.485" transform="translate(37.268 79.505)" fill="#242424"/>
  <path id="Path_70688" data-name="Path 70688" d="M29.07,88.369H24.1v4.969h2.485V90.854H29.07Z" transform="translate(-1.74 -6.379)" fill="#242424"/>
  <rect id="Rectangle_7164" data-name="Rectangle 7164" width="2.485" height="2.485" transform="translate(34.784 81.99)" fill="#242424"/>
  <path id="Path_70689" data-name="Path 70689" d="M54.882,87.017h2.485V84.532H52.4V89.5H49.913V87.017H47.429V84.532H52.4V82.047h7.453V79.563H52.4V74.593H49.913V72.109H44.944V69.625H39.975v2.484H37.49v2.485h4.969v9.939h2.485v2.485H42.459v4.968h2.485V89.5h2.485v2.484h7.453V87.017Zm-9.938-7.454h2.485V77.078H44.944V74.593h2.485v2.485h2.485v4.969H44.944Z" transform="translate(-2.706 -5.026)" fill="#242424"/>
  <rect id="Rectangle_7165" data-name="Rectangle 7165" width="2.485" height="2.485" transform="translate(29.814 84.474)" fill="#242424"/>
  <rect id="Rectangle_7166" data-name="Rectangle 7166" width="2.485" height="2.485" transform="translate(27.33 86.959)" fill="#242424"/>
  <path id="Path_70690" data-name="Path 70690" d="M39.781,93.725H34.812V96.21h7.453V93.725Z" transform="translate(-2.513 -6.766)" fill="#242424"/>
  <rect id="Rectangle_7167" data-name="Rectangle 7167" width="2.485" height="2.485" transform="translate(42.238 86.959)" fill="#242424"/>
  <path id="Path_70691" data-name="Path 70691" d="M90.854,61.591H88.369V66.56h2.485V61.591Z" transform="translate(-6.379 -4.446)" fill="#242424"/>
  <path id="Path_70692" data-name="Path 70692" d="M93.338,50.879v2.485H88.369v2.485h4.969v2.484h2.485V50.879Z" transform="translate(-6.379 -3.673)" fill="#242424"/>
  <path id="Path_70693" data-name="Path 70693" d="M93.338,50.493V48.008H90.854V45.523H88.369v4.969h4.969Z" transform="translate(-6.379 -3.286)" fill="#242424"/>
  <path id="Path_70694" data-name="Path 70694" d="M93.145,34.812H85.692V37.3h2.484v4.968h2.486V39.782h2.484V37.3H95.63V34.812Z" transform="translate(-6.186 -2.513)" fill="#242424"/>
  <path id="Path_70695" data-name="Path 70695" d="M93.532,64.268v2.485H91.048v2.485h2.484v4.969h2.485V64.268Z" transform="translate(-6.573 -4.639)" fill="#242424"/>
  <rect id="Rectangle_7168" data-name="Rectangle 7168" width="2.485" height="2.485" transform="translate(59.629 79.505)" fill="#242424"/>
  <rect id="Rectangle_7169" data-name="Rectangle 7169" width="2.485" height="2.485" transform="translate(67.083 81.99)" fill="#242424"/>
  <path id="Path_70696" data-name="Path 70696" d="M66.173,88.369v2.485H63.689V88.369H61.2v2.485H58.72v2.485H56.235v2.484H61.2V93.339h2.485v2.484h2.485V93.339h4.969V90.854H68.658V88.369Z" transform="translate(-4.06 -6.379)" fill="#242424"/>
  <rect id="Rectangle_7170" data-name="Rectangle 7170" width="2.485" height="2.485" transform="translate(81.99 77.02)" fill="#242424"/>
  <path id="Path_70697" data-name="Path 70697" d="M93.532,83.014V85.5H91.048v2.486h2.484v4.969h2.485V83.014Z" transform="translate(-6.573 -5.993)" fill="#242424"/>
  <path id="Path_70698" data-name="Path 70698" d="M2.485,2.485H17.393V17.392H2.485ZM0,19.876H19.876V0H0Z" fill="#242424"/>
  <rect id="Rectangle_7171" data-name="Rectangle 7171" width="9.939" height="9.938" transform="translate(4.969 4.969)" fill="#242424"/>
  <path id="Path_70699" data-name="Path 70699" d="M2.485,78.029H17.393V92.937H2.485ZM0,95.42H19.876V75.544H0Z" transform="translate(0 -5.453)" fill="#242424"/>
  <rect id="Rectangle_7172" data-name="Rectangle 7172" width="9.939" height="9.938" transform="translate(4.969 75.06)" fill="#242424"/>
  <path id="Path_70700" data-name="Path 70700" d="M77.465,2.485H92.372V17.392H77.465ZM74.98,19.876H94.856V0H74.98Z" transform="translate(-5.413)" fill="#242424"/>
  <rect id="Rectangle_7173" data-name="Rectangle 7173" width="9.939" height="9.938" transform="translate(74.537 4.969)" fill="#242424"/>
</svg>
