<svg xmlns="http://www.w3.org/2000/svg" width="70" height="70" viewBox="0 0 70 70">
  <g id="taxes" transform="translate(0 0)">
    <circle id="Ellipse_9" data-name="Ellipse 9" cx="35" cy="35" r="35" transform="translate(0 0)" fill="#45b39c"/>
    <path id="Path_70548" data-name="Path 70548" d="M137.881,104.96v40.1L152.818,160c.143,0,.283.011.426.011a35,35,0,0,0,35-35c0-.143-.009-.284-.011-.426L168.608,104.96Z" transform="translate(-118.245 -90.012)" opacity="0.1"/>
    <rect id="Rectangle_6421" data-name="Rectangle 6421" width="30.728" height="40.104" transform="translate(19.636 14.948)" fill="#ebf0f3"/>
    <rect id="Rectangle_6422" data-name="Rectangle 6422" width="27.811" height="8.505" transform="translate(21.095 16.408)" fill="#27a2db"/>
    <g id="Group_59279" data-name="Group 59279" transform="translate(22.834 17.211)">
      <path id="Path_70549" data-name="Path 70549" d="M161.9,128.54v-5.494h-1.565V121.96h4.491v1.085h-1.565v5.494Z" transform="translate(-160.332 -121.802)" fill="#fff"/>
      <path id="Path_70550" data-name="Path 70550" d="M189.4,128.54l1.646-6.58h1.826l1.66,6.58h-1.465l-.36-1.653h-1.565l-.351,1.653Zm1.954-2.64h1.157l-.583-2.76Z" transform="translate(-185.262 -121.802)" fill="#fff"/>
      <path id="Path_70551" data-name="Path 70551" d="M226.7,128.54l1.788-3.358-1.7-3.221h1.532l.972,2.072.991-2.072H231.8l-1.759,3.221,1.807,3.358h-1.537l-1.058-2.2-1.077,2.2Z" transform="translate(-217.246 -121.802)" fill="#fff"/>
      <path id="Path_70552" data-name="Path 70552" d="M267.821,128.54v-6.58h3.751v1.094h-2.4v1.521h2.234v1.042h-2.234v1.812h2.457v1.111Z" transform="translate(-252.513 -121.802)" fill="#fff"/>
      <path id="Path_70553" data-name="Path 70553" d="M300.507,125.276h1.361v.423a1.441,1.441,0,0,0,.168.827.688.688,0,0,0,.581.22.971.971,0,0,0,.657-.2.73.73,0,0,0,.225-.581.827.827,0,0,0-.157-.506,2.726,2.726,0,0,0-.678-.545l-.7-.444a4.006,4.006,0,0,1-1.145-.931,1.837,1.837,0,0,1,.3-2.222,2.655,2.655,0,0,1,3.059.03,1.858,1.858,0,0,1,.541,1.436q0,.094,0,.145t-.007.09h-1.29v-.175a1.189,1.189,0,0,0-.194-.765.794.794,0,0,0-.64-.231.729.729,0,0,0-.515.173.622.622,0,0,0-.187.481q0,.414.839.919l.014.009.749.457a3.4,3.4,0,0,1,1.086.9,1.909,1.909,0,0,1,.285,1.083,1.722,1.722,0,0,1-.569,1.384,2.431,2.431,0,0,1-1.627.487,2.3,2.3,0,0,1-1.638-.513,2.065,2.065,0,0,1-.538-1.564q0-.111.019-.367Z" transform="translate(-280.528 -120.85)" fill="#fff"/>
    </g>
    <path id="Path_70554" data-name="Path 70554" d="M150.18,198.092v-1.566a2.934,2.934,0,0,1-2.192-.968,3.869,3.869,0,0,1-.736-2.542v-.307h1.912q0,.063-.008.189t-.008.181a2.524,2.524,0,0,0,.268,1.283,1.158,1.158,0,0,0,.834.551V191.34a6.957,6.957,0,0,1-2.211-1.72,3.279,3.279,0,0,1-.661-2.042,3.088,3.088,0,0,1,.744-2.172,2.85,2.85,0,0,1,2.058-.874v-1.078h.889v1.094a2.77,2.77,0,0,1,2.062.756,2.988,2.988,0,0,1,.708,2.148v.228h-1.865v-.165a1.85,1.85,0,0,0-.256-1.047.872.872,0,0,0-.712-.4v3.219a7.556,7.556,0,0,1,2.451,1.771,3.312,3.312,0,0,1,.657,2.1,3.473,3.473,0,0,1-.783,2.416,3.159,3.159,0,0,1-2.263.952v1.566h-.889Zm.071-9.239-.008-2.8a.918.918,0,0,0-.7.374,1.69,1.69,0,0,0-.012,1.731A2.351,2.351,0,0,0,150.25,188.853Zm.756,6.06a1.23,1.23,0,0,0,.8-.46,1.577,1.577,0,0,0,.275-.972,1.858,1.858,0,0,0-.236-.984,2.6,2.6,0,0,0-.842-.771Z" transform="translate(-126.281 -157.327)" fill="#e56353"/>
    <g id="Group_59280" data-name="Group 59280" transform="translate(20.971 27.564)">
      <rect id="Rectangle_6423" data-name="Rectangle 6423" width="18.944" height="1.094" transform="translate(8.991)" fill="#d5d6db"/>
      <rect id="Rectangle_6424" data-name="Rectangle 6424" width="18.944" height="1.094" transform="translate(8.991 4.009)" fill="#d5d6db"/>
      <rect id="Rectangle_6425" data-name="Rectangle 6425" width="18.944" height="1.094" transform="translate(8.991 8.009)" fill="#d5d6db"/>
      <rect id="Rectangle_6426" data-name="Rectangle 6426" width="18.944" height="1.094" transform="translate(8.991 12.014)" fill="#d5d6db"/>
      <rect id="Rectangle_6427" data-name="Rectangle 6427" width="27.935" height="1.094" transform="translate(0 16.02)" fill="#d5d6db"/>
      <rect id="Rectangle_6428" data-name="Rectangle 6428" width="27.935" height="1.094" transform="translate(0 20.028)" fill="#d5d6db"/>
      <rect id="Rectangle_6429" data-name="Rectangle 6429" width="18.463" height="1.094" transform="translate(0 24.031)" fill="#d5d6db"/>
    </g>
  </g>
</svg>
