<svg id="viber" xmlns="http://www.w3.org/2000/svg" width="65.028" height="64" viewBox="0 0 65.028 64">
  <g id="Group_59382" data-name="Group 59382">
    <g id="Group_59381" data-name="Group 59381">
      <path id="Path_70740" data-name="Path 70740" d="M65.023,60.507a5.18,5.18,0,0,0-1.215-3.147,74.866,74.866,0,0,0-7.478-5.976c-1.619-1.1-4.178-2.654-5.375-3.26a6.752,6.752,0,0,0-5.294-.453,5.991,5.991,0,0,0-.913.376,9.751,9.751,0,0,0-2.8,2.752c-1.354,1.634-1.635,1.952-1.632,1.952a6.085,6.085,0,0,1-.579.3c-1.007.458-2.657.081-5.342-1.227a27.816,27.816,0,0,1-6.6-4.56,29.54,29.54,0,0,1-5.018-5.76,15.788,15.788,0,0,1-2.446-6.559A3.769,3.769,0,0,1,20.8,33.3l.106-.109c.072-.069.151-.144.259-.24.377-.339.923-.793,1.492-1.243,2.5-1.967,3.288-2.764,3.711-4.243.409-1.368.05-3.052-1.129-5.3-1.757-3.352-7.328-10.487-9.652-11.991a8.1,8.1,0,0,0-1.458-.712,6.759,6.759,0,0,0-3.176-.271c-1.179.242-2.473.984-5.329,3.058A23.812,23.812,0,0,0,.992,16.706c-1.544,2.593-1.151,4.843.249,8.612a71.573,71.573,0,0,0,5.08,10.75l.106.179c.41.708.829,1.413,1.269,2.121l.114.179c.437.695.879,1.388,1.342,2.079l.729,1.061c.272.4.543.792.824,1.186.554.772,1.122,1.541,1.71,2.308a81.566,81.566,0,0,0,22.1,20.049l.352.221c1.247.764,2.575,1.528,3.945,2.269l.535.288c1.418.754,2.765,1.431,4.118,2.065l.422.192c1.6.74,3.061,1.376,4.467,1.943a8.72,8.72,0,0,0,3.687.9c.212,0,.439-.006.686-.018a8.585,8.585,0,0,0,2.122-.352,10.415,10.415,0,0,0,2.9-1.478c.184-.127.368-.256.567-.4.234-.172.483-.384.736-.6a27.009,27.009,0,0,0,3.7-4.047,14.492,14.492,0,0,0,1.776-2.946,6.663,6.663,0,0,0,.5-2.752h0Z" transform="translate(0 -9.105)" fill="#d7222c"/>
    </g>
  </g>
</svg>
